<mxfile host="app.diagrams.net" modified="2024-01-20T01:04:08.890Z" agent="Mozilla/5.0 (X11; Linux x86_64; rv:102.0) Gecko/20100101 Firefox/102.0" version="22.1.21" etag="kL6p5NnFpREUlBHMTtLx" type="github">
  <diagram name="PÃ¡gina-1" id="0aYHuJ7ZyOO9k7C9B9t8">
    <mxGraphModel>
      <root>
        <mxCell id="0" />
        <mxCell id="1" parent="0" />
      </root>
    </mxGraphModel>
  </diagram>
</mxfile>
